<svg width="50" height="50" viewBox="0 0 50 50" fill="none" xmlns="http://www.w3.org/2000/svg">
<path d="M50 25C50 11.1914 38.8086 0 25 0C11.1914 0 0 11.1914 0 25C0 38.8086 11.1914 50 25 50C25.1465 50 25.293 50 25.4395 49.9902V30.5371H20.0684V24.2773H25.4395V19.668C25.4395 14.3262 28.7012 11.416 33.4668 11.416C35.752 11.416 37.7148 11.582 38.2812 11.6602V17.2461H35C32.4121 17.2461 31.9043 18.4766 31.9043 20.2832V24.2676H38.1055L37.2949 30.5273H31.9043V49.0332C42.3535 46.0352 50 36.416 50 25Z" fill="white"/>
</svg>
