<svg width="50" height="50" viewBox="0 0 50 50" fill="none" xmlns="http://www.w3.org/2000/svg">
<path d="M29.7852 25C29.7852 27.6428 27.6428 29.7852 25 29.7852C22.3572 29.7852 20.2148 27.6428 20.2148 25C20.2148 22.3572 22.3572 20.2148 25 20.2148C27.6428 20.2148 29.7852 22.3572 29.7852 25Z" fill="white"/>
<path d="M36.1907 16.5336C35.9607 15.9103 35.5937 15.3461 35.1169 14.883C34.6538 14.4061 34.09 14.0392 33.4663 13.8091C32.9604 13.6127 32.2006 13.3788 30.8009 13.3151C29.2869 13.2461 28.8329 13.2312 24.9999 13.2312C21.1665 13.2312 20.7126 13.2457 19.1989 13.3147C17.7993 13.3788 17.039 13.6127 16.5336 13.8091C15.9099 14.0392 15.3457 14.4061 14.883 14.883C14.4061 15.3461 14.0392 15.9099 13.8088 16.5336C13.6123 17.0394 13.3785 17.7997 13.3148 19.1993C13.2457 20.713 13.2308 21.1669 13.2308 25.0003C13.2308 28.8333 13.2457 29.2873 13.3148 30.8013C13.3785 32.2009 13.6123 32.9608 13.8088 33.4666C14.0392 34.0903 14.4058 34.6542 14.8826 35.1173C15.3457 35.5941 15.9095 35.9611 16.5332 36.1911C17.039 36.3879 17.7993 36.6218 19.1989 36.6855C20.7126 36.7545 21.1662 36.769 24.9996 36.769C28.8333 36.769 29.2873 36.7545 30.8006 36.6855C32.2002 36.6218 32.9604 36.3879 33.4663 36.1911C34.7183 35.7082 35.7078 34.7186 36.1907 33.4666C36.3872 32.9608 36.621 32.2009 36.6851 30.8013C36.7542 29.2873 36.7687 28.8333 36.7687 25.0003C36.7687 21.1669 36.7542 20.713 36.6851 19.1993C36.6214 17.7997 36.3876 17.0394 36.1907 16.5336ZM24.9999 32.3714C20.9285 32.3714 17.628 29.0714 17.628 24.9999C17.628 20.9285 20.9285 17.6284 24.9999 17.6284C29.071 17.6284 32.3715 20.9285 32.3715 24.9999C32.3715 29.0714 29.071 32.3714 24.9999 32.3714ZM32.6629 19.0597C31.7115 19.0597 30.9402 18.2883 30.9402 17.337C30.9402 16.3856 31.7115 15.6142 32.6629 15.6142C33.6143 15.6142 34.3856 16.3856 34.3856 17.337C34.3852 18.2883 33.6143 19.0597 32.6629 19.0597Z" fill="white"/>
<path d="M25 0C11.195 0 0 11.195 0 25C0 38.805 11.195 50 25 50C38.805 50 50 38.805 50 25C50 11.195 38.805 0 25 0ZM39.2689 30.9185C39.1994 32.4467 38.9565 33.49 38.6017 34.4032C37.8559 36.3316 36.3316 37.8559 34.4032 38.6017C33.4904 38.9565 32.4467 39.1991 30.9189 39.2689C29.388 39.3387 28.899 39.3555 25.0004 39.3555C21.1014 39.3555 20.6127 39.3387 19.0815 39.2689C17.5537 39.1991 16.51 38.9565 15.5972 38.6017C14.6389 38.2412 13.7714 37.6762 13.0543 36.9457C12.3241 36.2289 11.7592 35.3611 11.3987 34.4032C11.0439 33.4904 10.8009 32.4467 10.7315 30.9189C10.6609 29.3877 10.6445 28.8986 10.6445 25C10.6445 21.1014 10.6609 20.6123 10.7311 19.0815C10.8006 17.5533 11.0432 16.51 11.3979 15.5968C11.7584 14.6389 12.3238 13.7711 13.0543 13.0543C13.7711 12.3238 14.6389 11.7588 15.5968 11.3983C16.51 11.0435 17.5533 10.8009 19.0815 10.7311C20.6123 10.6613 21.1014 10.6445 25 10.6445C28.8986 10.6445 29.3877 10.6613 30.9185 10.7315C32.4467 10.8009 33.49 11.0435 34.4032 11.3979C35.3611 11.7584 36.2289 12.3238 36.9461 13.0543C37.6762 13.7714 38.2416 14.6389 38.6017 15.5968C38.9568 16.51 39.1994 17.5533 39.2693 19.0815C39.3391 20.6123 39.3555 21.1014 39.3555 25C39.3555 28.8986 39.3391 29.3877 39.2689 30.9185Z" fill="white"/>
</svg>
