<svg width="50" height="50" viewBox="0 0 50 50" fill="none" xmlns="http://www.w3.org/2000/svg">
<path d="M25 0C11.195 0 0 11.195 0 25C0 38.805 11.195 50 25 50C38.805 50 50 38.805 50 25C50 11.195 38.805 0 25 0ZM36.4147 19.4923C36.4258 19.7384 36.4311 19.9856 36.4311 20.2339C36.4311 27.8164 30.6595 36.5601 20.1046 36.5604H20.105H20.1046C16.864 36.5604 13.8485 35.6106 11.3091 33.9828C11.758 34.0359 12.215 34.0622 12.6778 34.0622C15.3664 34.0622 17.8406 33.1451 19.8048 31.6059C17.2928 31.5594 15.1749 29.9004 14.444 27.6203C14.7938 27.6875 15.1535 27.7241 15.5224 27.7241C16.0461 27.7241 16.5535 27.6535 17.0357 27.5219C14.41 26.9962 12.4321 24.6758 12.4321 21.8971C12.4321 21.8712 12.4321 21.8479 12.4329 21.8239C13.2061 22.2538 14.0903 22.5124 15.0318 22.5414C13.4911 21.5134 12.4783 19.7559 12.4783 17.765C12.4783 16.7137 12.7625 15.7288 13.2553 14.8808C16.0851 18.3529 20.314 20.6364 25.0832 20.8763C24.9847 20.4559 24.934 20.018 24.934 19.5679C24.934 16.4001 27.504 13.8302 30.6728 13.8302C32.3235 13.8302 33.8142 14.5279 34.8614 15.6433C36.1687 15.3854 37.3962 14.9078 38.5052 14.2506C38.076 15.5899 37.1666 16.7137 35.9818 17.4244C37.1426 17.2855 38.2488 16.9777 39.2769 16.5207C38.509 17.6716 37.5351 18.6825 36.4147 19.4923Z" fill="white"/>
</svg>
