<svg width="50" height="50" viewBox="0 0 50 50" fill="none" xmlns="http://www.w3.org/2000/svg">
<path d="M25 0C11.195 0 0 11.195 0 25C0 38.805 11.195 50 25 50C38.805 50 50 38.805 50 25C50 11.195 38.805 0 25 0ZM25.5299 39.5557C25.5295 39.5557 25.5302 39.5557 25.5299 39.5557H25.5238C23.0194 39.5546 20.5585 38.9267 18.3731 37.735L10.4412 39.8151L12.5641 32.0637C11.2545 29.7955 10.5656 27.2221 10.5667 24.5857C10.5701 16.3383 17.2825 9.62868 25.5299 9.62868C29.5322 9.6302 33.2893 11.1881 36.1141 14.0152C38.9393 16.8427 40.4942 20.6009 40.4926 24.5975C40.4892 32.8453 33.7761 39.5557 25.5299 39.5557Z" fill="white"/>
<path d="M25.5348 12.155C18.6748 12.155 13.0958 17.7317 13.0928 24.5867C13.092 26.9358 13.7497 29.2235 14.9944 31.203L15.29 31.6733L14.0335 36.2612L18.7404 35.0268L19.1948 35.2961C21.104 36.4291 23.2929 37.0284 25.5245 37.0291H25.5295C32.3841 37.0291 37.9631 31.4521 37.9662 24.5967C37.9673 21.2744 36.6749 18.151 34.3269 15.8011C31.979 13.4513 28.8563 12.1562 25.5348 12.155ZM32.8499 29.9319C32.5382 30.8047 31.0448 31.6016 30.3264 31.7092C29.6821 31.8053 28.8673 31.8454 27.9716 31.5612C27.4284 31.3887 26.7322 31.1587 25.84 30.7738C22.0897 29.1548 19.6403 25.3798 19.4534 25.1303C19.2665 24.8809 17.9268 23.1036 17.9268 21.2638C17.9268 19.4243 18.8926 18.5199 19.2352 18.146C19.5781 17.7718 19.9833 17.6783 20.2324 17.6783C20.4815 17.6783 20.7309 17.6806 20.9488 17.6913C21.1784 17.7027 21.4866 17.6039 21.7899 18.3329C22.1016 19.0814 22.8493 20.9208 22.9427 21.1077C23.0362 21.295 23.0984 21.5132 22.974 21.7627C22.8493 22.0122 22.435 22.5505 22.0394 23.041C21.8735 23.2466 21.6572 23.4297 21.8754 23.804C22.0932 24.1778 22.8439 25.4019 23.9551 26.393C25.3834 27.6664 26.588 28.0608 26.9619 28.2481C27.3353 28.435 27.5535 28.4037 27.7717 28.1546C27.9896 27.9052 28.7063 27.0632 28.9554 26.689C29.2045 26.3148 29.454 26.3774 29.7966 26.5021C30.1395 26.6265 31.9775 27.5309 32.3513 27.7178C32.7251 27.9052 32.9742 27.9986 33.0677 28.1546C33.1615 28.3107 33.1615 29.0587 32.8499 29.9319Z" fill="white"/>
</svg>
