<svg width="50" height="50" viewBox="0 0 50 50" fill="none" xmlns="http://www.w3.org/2000/svg">
<path d="M21.886 29.6835L30.0182 24.9998L21.886 20.3162V29.6835Z" fill="white"/>
<path d="M25 0C11.195 0 0 11.195 0 25C0 38.805 11.195 50 25 50C38.805 50 50 38.805 50 25C50 11.195 38.805 0 25 0ZM40.6212 25.0256C40.6212 25.0256 40.6212 30.0957 39.978 32.5405C39.6175 33.8787 38.5624 34.9339 37.2242 35.294C34.7794 35.9375 25 35.9375 25 35.9375C25 35.9375 15.2462 35.9375 12.7758 35.2684C11.4376 34.9083 10.3825 33.8528 10.022 32.5146C9.37843 30.0957 9.37843 25 9.37843 25C9.37843 25 9.37843 19.9303 10.022 17.4854C10.3821 16.1472 11.4632 15.0661 12.7758 14.706C15.2206 14.0625 25 14.0625 25 14.0625C25 14.0625 34.7794 14.0625 37.2242 14.7316C38.5624 15.0917 39.6175 16.1472 39.978 17.4854C40.6471 19.9303 40.6212 25.0256 40.6212 25.0256Z" fill="white"/>
</svg>
